# xmcd CD database file
# 
# Track frame offsets:
# 	150
# 	16965
# 	33805
# 	49882
# 	67071
# 	82203
# 	97333
# 	117064
# 	135259
# 	151388
# 	167159
# 	195493
# 
# Disc length: 3084 seconds
# 
# Submitted via: Nero 5.5.10.50
# 
# Revision: 0
# Processed by: cddbd v1.4PL0 Copyright (c) Steve Scherf et al.
#
DISCID=9d0c0a0c
DTITLE=Deric Ruttan - Deric Ruttan
DYEAR=1900
DGENRE=
TTITLE0=When You Come Around
TTITLE1=Take The Wheel
TTITLE2=I Saved Everything
TTITLE3=Unbeatable
TTITLE4=Promise Broken
TTITLE5=Invisible
TTITLE6=To Be Where You Are
TTITLE7=Angelina
TTITLE8=Shine
TTITLE9=Love Did
TTITLE10=Tom and Annie
TTITLE11=Ashes To Asphalt - Unbeatable (Reprise)
EXTD=2061650172
EXTT0=
EXTT1=
EXTT2=
EXTT3=
EXTT4=
EXTT5=
EXTT6=
EXTT7=
EXTT8=
EXTT9=
EXTT10=
EXTT11=
PLAYORDER=
